{
  "asset": {
    "version": "2.0",
    "generator": "THREE.GLTFExporter"
  },
  "scenes": [
    {
      "nodes": [
        0
      ]
    }
  ],
  "scene": 0,
  "nodes": [
    {
      "children": [
        4
      ],
      "matrix": [
        0.01,
        0,
        0,
        0,
        0,
        0.01,
        0,
        0,
        0,
        0,
        0.01,
        0,
        0,
        0,
        0,
        1
      ]
    },
    {
      "matrix": [
        1,
        0,
        0,
        0,
        0,
        1,
        0,
        0,
        0,
        0,
        1,
        0,
        -191.06462340578943,
        81.5,
        0,
        1
      ],
      "name": "A",
      "mesh": 0
    },
    {
      "matrix": [
        -1,
        0,
        -1.1368683772161593e-16,
        0,
        -6.462348535570517e-33,
        1,
        5.684341886080797e-17,
        0,
        1.1368683772161593e-16,
        5.684341886080797e-17,
        -1,
        0,
        -191.06462340578935,
        81.49999999999993,
        -1000.0000000000008,
        1
      ],
      "camera": 0
    },
    {
      "matrix": [
        1,
        0,
        0,
        0,
        0,
        1,
        0,
        0,
        0,
        0,
        1,
        0,
        0,
        1,
        0,
        1
      ],
      "name": "Default Ambient Light"
    },
    {
      "name": "Scene 1",
      "children": [
        1,
        2,
        3
      ]
    }
  ],
  "bufferViews": [
    {
      "buffer": 0,
      "byteOffset": 0,
      "byteLength": 1872,
      "target": 34962,
      "byteStride": 12
    },
    {
      "buffer": 0,
      "byteOffset": 1872,
      "byteLength": 1872,
      "target": 34962,
      "byteStride": 12
    },
    {
      "buffer": 0,
      "byteOffset": 3744,
      "byteLength": 1248,
      "target": 34962,
      "byteStride": 8
    },
    {
      "buffer": 0,
      "byteOffset": 4992,
      "byteLength": 600,
      "target": 34963
    }
  ],
  "buffers": [
    {
      "byteLength": 5592,
      "uri": "data:application/octet-stream;base64,"
    }
  ],
  "accessors": [
    {
      "bufferView": 0,
      "componentType": 5126,
      "count": 156,
      "max": [
        2.9630608558654785,
        4.806250095367432,
        2
      ],
      "min": [
        -5.5994391441345215,
        -6.568750381469727,
        0
      ],
      "type": "VEC3"
    },
    {
      "bufferView": 1,
      "componentType": 5126,
      "count": 156,
      "max": [
        1,
        1,
        1
      ],
      "min": [
        -1,
        -1,
        -1
      ],
      "type": "VEC3"
    },
    {
      "bufferView": 2,
      "componentType": 5126,
      "count": 156,
      "max": [
        1,
        1
      ],
      "min": [
        0,
        0
      ],
      "type": "VEC2"
    },
    {
      "bufferView": 3,
      "componentType": 5123,
      "count": 300,
      "max": [
        155
      ],
      "min": [
        0
      ],
      "type": "SCALAR"
    }
  ],
  "meshes": [
    {
      "primitives": [
        {
          "mode": 4,
          "attributes": {
            "POSITION": 0,
            "NORMAL": 1,
            "TEXCOORD_0": 2
          },
          "extras": {
            "parameters": {
              "type": "TextGeometry",
              "width": 11.870753188421135,
              "height": 17,
              "depth": 2,
              "horizontalAlign": 1,
              "verticalAlign": 1,
              "fontSize": 16,
              "lineHeight": 1.2,
              "letterSpacing": 0,
              "text": {
                "textValue": "A"
              },
              "textTransform": 1,
              "font": "Roboto Condensed_regular",
              "editable": false,
              "extrudeBevelSize": 0.26,
              "extrudeBevelSegments": 1
            },
            "type": "TextGeometry"
          },
          "indices": 3
        }
      ]
    }
  ],
  "cameras": [
    {
      "type": "orthographic",
      "orthographic": {
        "xmag": 0.17146710026324385,
        "ymag": 0.08436108134616374,
        "zfar": 100000,
        "znear": 0
      }
    }
  ]
}